# xmcd CD database file
#
# Track frame offsets:
#	150
#	17115
#	35384
#	54992
#	78636
#	101017
#	122228
#	142848
#	162241
#	179871
#	204689
#	230022
#
# Disc length: 3314 seconds
#
# Revision: 0
# Processed by: cddbd v1.5PL3 Copyright (c) Steve Scherf et al.
# Submitted via: CDex 1.51
#
DISCID=a70cf00c
DTITLE=つんく - TAKE 1
DYEAR=2004
DGENRE=JPop
TTITLE0=TOUCH ME #1
TTITLE1=Mr.Moonlight 〜愛のビックバンド〜
TTITLE2=ここにいるぜぇ！
TTITLE3=なんでやねん　心配せんでもええ
TTITLE4=つんく with 7HOUSE/LOVE 〜抱き合って〜
TTITLE5=愛の唄　〜チョンマル　サランヘヨ〜 (バラード version)
TTITLE6=ひとりぼっちのハブラシ
TTITLE7=THE つんく　ビト/すっごいね！
TTITLE8=見ておくれ！　MY LOVERS
TTITLE9=草原の人
TTITLE10=つんく　with 高橋愛　（モーニング娘。）/LOVE 〜Sinnce1999〜
TTITLE11=THE つんく　ビト/明日がくる前に
EXTD=YEAR: 2004
EXTT0=
EXTT1=
EXTT2=
EXTT3=
EXTT4=
EXTT5=
EXTT6=
EXTT7=
EXTT8=
EXTT9=
EXTT10=
EXTT11=
PLAYORDER=
